<?xml version="1.0" encoding="utf-8"?>
<!-- Generator: Adobe Illustrator 14.0.0, SVG Export Plug-In . SVG Version: 6.00 Build 43363)  -->
<!DOCTYPE svg PUBLIC "-//W3C//DTD SVG 1.1//EN" "http://www.w3.org/Graphics/SVG/1.1/DTD/svg11.dtd">
<svg version="1.1" id="Layer_1" xmlns="http://www.w3.org/2000/svg" xmlns:xlink="http://www.w3.org/1999/xlink" x="0px" y="0px"
	 width="80.056px" height="21.023px" viewBox="0 0 80.056 21.023" enable-background="new 0 0 80.056 21.023" xml:space="preserve">
<g>
	<polygon fill="#FFFFFF" points="45.583,18.687 39.598,18.687 39.598,2.919 42.08,2.335 42.08,0.583 34.049,0.729 34.049,2.335 
		36.531,2.919 36.531,18.687 34.049,19.27 34.049,21.021 48.21,21.021 48.21,15.328 46.167,15.328 	"/>
	<path fill="#FFFFFF" d="M67.015,10.687l-7.591,0.146v1.605l2.481,0.584v4.789c0,0-2.046,0.73-4.09,0.73
		c-3.794,0-6.422-2.482-6.422-7.738c0-5.402,2.189-8.321,6.132-8.321c2.19,0,3.942,0.583,3.942,0.583l0.874,3.212h1.899l0.146-4.817
		c0,0-3.359-1.46-6.572-1.46c-5.983,0-9.779,4.233-9.779,10.949c0,6.57,3.504,10.074,9.343,10.074c4.351,0,7.444-1.753,7.444-1.753
		v-6.248l2.191-0.584V10.687z"/>
	<path fill="#FFFFFF" d="M69.544,5.313c0-1.459,1.256-2.831,3.884-2.831c1.604,0,3.094,0.524,3.094,0.524l0.993,3.125h1.897
		l0.146-4.964c0,0-3.385-1.168-6.16-1.168c-3.648,0-6.92,1.723-6.92,5.811c0,6.979,10.541,5.11,10.541,9.606
		c0,2.072-2.335,3.125-4.469,3.125c-1.896,0-3.211-0.73-3.211-0.73l-0.583-3.066h-2.335v5.11c0,0,2.947,1.168,6.014,1.168
		c4.087,0,7.621-2.015,7.621-6.395C80.056,8.058,69.544,9.753,69.544,5.313z"/>
	<path fill="#FFFFFF" d="M24.439,0.529l-2.921,0.146l-4.123,11.137l1.262,3.608h7.825l1.11,3.24l-2.716,0.556v1.751h8.467v-1.751
		l-2.424-0.556L24.439,0.529z M19.678,13.085l3.066-8.788l2.949,8.788H19.678z"/>
	<path fill="#FFFFFF" d="M11.972,0.429l-2.92,0.146L2.395,18.562L0,19.115v1.752h8.029v-1.752l-2.744-0.554l1.138-3.242h7.592
		l1.11,3.242l-2.715,0.554v1.752h8.467v-1.752l-2.423-0.554L11.972,0.429z M7.212,12.983l3.066-8.789l2.95,8.789H7.212z"/>
</g>
</svg>
