<?xml version="1.0" encoding="utf-8"?>
<!-- Generator: Adobe Illustrator 14.0.0, SVG Export Plug-In . SVG Version: 6.00 Build 43363)  -->
<!DOCTYPE svg PUBLIC "-//W3C//DTD SVG 1.1//EN" "http://www.w3.org/Graphics/SVG/1.1/DTD/svg11.dtd">
<svg version="1.1" id="Layer_1" xmlns="http://www.w3.org/2000/svg" xmlns:xlink="http://www.w3.org/1999/xlink" x="0px" y="0px"
	 width="80.056px" height="21.025px" viewBox="-0.167 -0.002 80.056 21.025" enable-background="new -0.167 -0.002 80.056 21.025"
	 xml:space="preserve">
<g>
	<polygon fill="#FFFFFF" points="45.073,17.533 39.458,17.533 39.458,2.739 41.787,2.19 41.787,0.547 34.251,0.684 34.251,2.19 
		36.58,2.739 36.58,17.533 34.251,18.08 34.251,19.722 47.538,19.722 47.538,14.381 45.621,14.381 	"/>
	<path fill="#FFFFFF" d="M65.181,10.027l-7.122,0.137v1.506l2.326,0.548v4.493c0,0-1.919,0.684-3.837,0.684
		c-3.56,0-6.024-2.327-6.024-7.26c0-5.067,2.052-7.805,5.752-7.805c2.055,0,3.698,0.547,3.698,0.547l0.818,3.014h1.784l0.137-4.52
		c0,0-3.152-1.37-6.166-1.37c-5.613,0-9.173,3.972-9.173,10.273c0,6.165,3.286,9.452,8.765,9.452c4.082,0,6.983-1.645,6.983-1.645
		v-5.862l2.056-0.548v-1.643H65.181z"/>
	<path fill="#FFFFFF" d="M67.553,4.985c0-1.369,1.179-2.656,3.645-2.656c1.505,0,2.903,0.49,2.903,0.49l0.932,2.932h1.78
		l0.137-4.657c0,0-3.177-1.096-5.78-1.096c-3.422,0-6.492,1.618-6.492,5.453c0,6.548,9.89,4.793,9.89,9.012
		c0,1.943-2.191,2.932-4.194,2.932c-1.778,0-3.012-0.684-3.012-0.684l-0.546-2.877h-2.192v4.795c0,0,2.766,1.096,5.644,1.096
		c3.835,0,7.15-1.892,7.15-6.002C77.417,7.56,67.553,9.15,67.553,4.985z"/>
	<path fill="#FFFFFF" d="M25.235,0.496l-2.74,0.136l-3.869,10.45l1.185,3.385h7.341l1.041,3.039l-2.548,0.521v1.644h7.944v-1.644
		l-2.274-0.521L25.235,0.496z M20.769,12.276l2.876-8.245l2.767,8.245H20.769z"/>
	<path fill="#FFFFFF" d="M13.538,0.496l-2.74,0.136L4.553,17.509l-2.247,0.519v1.645h7.533v-1.645l-2.574-0.52l1.067-3.041h7.124
		l1.041,3.041l-2.547,0.52v1.645h7.944v-1.645l-2.273-0.52L13.538,0.496z M9.072,12.274l2.877-8.246l2.768,8.246H9.072z"/>
</g>
</svg>
