<?xml version="1.0" encoding="utf-8"?>
<!-- Generator: Adobe Illustrator 15.1.0, SVG Export Plug-In . SVG Version: 6.00 Build 0)  -->
<!DOCTYPE svg PUBLIC "-//W3C//DTD SVG 1.1//EN" "http://www.w3.org/Graphics/SVG/1.1/DTD/svg11.dtd">
<svg version="1.1" id="Layer_1" xmlns="http://www.w3.org/2000/svg" xmlns:xlink="http://www.w3.org/1999/xlink" x="0px" y="0px"
	 width="25px" height="25px" viewBox="0 0 25 25" enable-background="new 0 0 25 25" xml:space="preserve">
<g>
	<path fill="none" d="M10.407,5.186c-3.037,0-5.507,2.471-5.507,5.507c0,3.037,2.471,5.508,5.507,5.508
		c3.038,0,5.508-2.471,5.508-5.508C15.915,7.657,13.444,5.186,10.407,5.186z"/>
	<path fill="#FFFFFF" d="M16.691,14.789c0.771-1.18,1.224-2.585,1.224-4.096c0-4.14-3.368-7.507-7.508-7.507
		c-4.14,0-7.507,3.368-7.507,7.507s3.368,7.508,7.507,7.508c1.381,0,2.671-0.381,3.785-1.034l5.053,5.053l2.439-2.44L16.691,14.789z
		 M10.407,16.201c-3.037,0-5.507-2.471-5.507-5.508c0-3.037,2.471-5.507,5.507-5.507c3.038,0,5.508,2.471,5.508,5.507
		C15.915,13.73,13.444,16.201,10.407,16.201z"/>
</g>
</svg>
