<?xml version="1.0" encoding="utf-8"?>
<!-- Generator: Adobe Illustrator 15.1.0, SVG Export Plug-In . SVG Version: 6.00 Build 0)  -->
<!DOCTYPE svg PUBLIC "-//W3C//DTD SVG 1.1//EN" "http://www.w3.org/Graphics/SVG/1.1/DTD/svg11.dtd">
<svg version="1.1" id="Layer_1" xmlns="http://www.w3.org/2000/svg" xmlns:xlink="http://www.w3.org/1999/xlink" x="0px" y="0px"
	 width="25px" height="25px" viewBox="0 0 25 25" enable-background="new 0 0 25 25" xml:space="preserve">
<g>
	<path fill="none" d="M10.23,3.463c-3.739,0-6.781,3.042-6.781,6.781c0,3.74,3.042,6.782,6.781,6.782
		c3.74,0,6.782-3.042,6.782-6.782C17.013,6.505,13.971,3.463,10.23,3.463z"/>
	<path fill="#FFFFFF" d="M17.97,15.287c0.949-1.452,1.507-3.183,1.507-5.043C19.477,5.147,15.329,1,10.23,1
		c-5.097,0-9.244,4.147-9.244,9.244c0,5.097,4.147,9.244,9.244,9.244c1.701,0,3.29-0.469,4.66-1.272l6.222,6.221l3.004-3.005
		L17.97,15.287z M10.23,17.026c-3.739,0-6.781-3.042-6.781-6.782c0-3.739,3.042-6.781,6.781-6.781c3.74,0,6.782,3.042,6.782,6.781
		C17.013,13.984,13.971,17.026,10.23,17.026z"/>
</g>
</svg>
